#!OML:ASF F:\VICON\USERDATA\INSTALL\rory3\rory3.ASF
:FULLY-SPECIFIED
:DEGREES
578
root 1.86111 29.1717 -5.88201 -174.046 -75.3773 180.49
lowerback 2.42418 0.105078 -0.116608
upperback 0.210719 0.143347 1.69911
thorax -1.14757 0.0697556 1.8022
lowerneck -16.4725 4.76071 -8.24355
upperneck 40.8927 8.81304 -1.34931
head 17.6407 1.32447 2.26533
rclavicle -2.69353e-014 -1.03368e-014
rhumerus -32.8499 -8.83167 -69.8095
rradius 31.7051
rwrist 17.6147
rhand -21.0591 0.864157
rfingers 7.12502
rthumb 5.31726 -29.0491
lclavicle -2.69353e-014 -1.03368e-014
lhumerus -34.3495 13.4405 75.9302
lradius 27.9966
lwrist -7.38644
lhand -10.2059 28.3867
lfingers 7.12502
lthumb 15.7853 57.7631
rfemur -11.8882 -5.88149 23.1668
rtibia 27.8262
rfoot -28.1893 -15.4191
rtoes 9.22322
lfemur -19.4975 10.2456 -24.122
ltibia 27.6242
lfoot -11.2075 21.7778
ltoes 0.988955
579
root 1.85242 29.164 -5.87365 -174.247 -76.2436 180.562
lowerback 2.49638 0.185521 -0.0537895
upperback 0.248791 0.25194 1.73295
thorax -1.15241 0.123271 1.79788
lowerneck -16.4084 4.64528 -8.59669
upperneck 40.891 8.74534 -1.28562
head 17.6053 1.2605 2.34133
rclavicle -6.44062e-014 6.75868e-015
rhumerus -32.8518 -8.80315 -69.5455
rradius 31.9063
rwrist 17.5866
rhand -21.2054 0.786737
rfingers 7.12502
rthumb 5.17607 -29.13
lclavicle -6.44062e-014 6.75868e-015
lhumerus -34.2845 13.7797 75.8933
lradius 27.7982
lwrist -7.70002
lhand -9.7102 27.9417
lfingers 7.12502
lthumb 16.2627 57.2797
rfemur -11.7654 -6.30819 23.1962
rtibia 28.0473
rfoot -29.0303 -15.4028
rtoes 9.11344
lfemur -19.3407 9.79836 -24.0831
ltibia 27.5568
lfoot -10.6157 21.3351
ltoes -1.45718
580
root 1.8455 29.1537 -5.86832 -173.613 -76.9398 179.874
lowerback 2.5042 0.279123 -0.304356
upperback 0.249812 0.370807 1.69108
thorax -1.16085 0.184444 1.89148
lowerneck -15.8727 4.6575 -8.28485
upperneck 40.2951 8.84854 -1.94881
head 17.2072 1.32568 1.98512
rclavicle -4.18442e-014 5.56597e-015
rhumerus -32.7709 -8.77728 -69.3947
rradius 31.9008
rwrist 17.582
rhand -21.2404 0.919883
rfingers 7.12502
rthumb 5.14218 -28.9977
lclavicle -4.18442e-014 5.56597e-015
lhumerus -34.2925 13.9406 75.811
lradius 27.7248
lwrist -7.67612
lhand -9.10536 27.3645
lfingers 7.12502
lthumb 16.845 56.6539
rfemur -11.8126 -6.76613 23.0497
rtibia 28.3558
rfoot -29.2824 -15.2288
rtoes 10.525
lfemur -19.299 9.61796 -24.2587
ltibia 27.4171
lfoot -9.12078 20.6749
ltoes -7.48802
581
root 1.83976 29.1496 -5.86667 -173.116 -77.6499 179.348
lowerback 2.53654 0.452181 -0.508681
upperback 0.233984 0.596975 1.6032
thorax -1.20433 0.299423 1.90777
lowerneck -16.1813 4.55316 -8.54195
upperneck 40.9183 8.59856 -1.30303
head 17.5747 1.22471 2.29507
rclavicle 1.61016e-014 2.38542e-015
rhumerus -32.8279 -8.94207 -69.2237
rradius 31.9362
rwrist 17.4237
rhand -21.212 1.24126
rfingers 7.12502
rthumb 5.16965 -28.6757
lclavicle 1.61016e-014 2.38542e-015
lhumerus -34.2401 13.6161 75.8593
lradius 27.7826
lwrist -7.336
lhand -9.34054 27.3609
lfingers 7.12502
lthumb 16.6186 56.6694
rfemur -11.9216 -6.99184 22.9797
rtibia 28.731
rfoot -29.2985 -15.4046
rtoes 11.3019
lfemur -19.2306 9.25613 -24.2761
ltibia 27.2556
lfoot -8.5505 19.9738
ltoes -9.5175
582
root 1.83794 29.1497 -5.85856 -172.416 -78.2874 178.662
lowerback 2.60406 0.646967 -0.651593
upperback 0.201684 0.853461 1.48747
thorax -1.28511 0.429565 1.85896
lowerneck -15.7428 4.49922 -8.18461
upperneck 40.5101 8.55696 -1.84109
head 17.3017 1.23802 1.96768
rclavicle 6.16232e-015 1.90833e-014
rhumerus -32.8796 -9.08332 -69.089
rradius 32.0246
rwrist 17.3001
rhand -21.3781 1.32871
rfingers 7.12502
rthumb 5.00924 -28.5921
lclavicle 6.16232e-015 1.90833e-014
lhumerus -34.1501 13.2621 75.9164
lradius 27.8903
lwrist -7.00411
lhand -10.2443 28.0839
lfingers 7.12502
lthumb 15.7484 57.4632
rfemur -12.0993 -7.25738 22.8481
rtibia 29.1341
rfoot -29.4763 -15.4029
rtoes 12.0934
lfemur -19.2107 8.78115 -24.306
ltibia 27.1089
lfoot -8.62165 19.457
ltoes -8.78303
583
root 1.83814 29.1496 -5.84653 -171.65 -78.9272 177.916
lowerback 2.70965 0.747488 -0.75251
upperback 0.165241 0.984826 1.38663
thorax -1.38647 0.496982 1.80549
lowerneck -15.7934 4.50247 -8.30944
upperneck 40.6573 8.56675 -1.66478
head 17.3749 1.24188 2.07512
rclavicle 3.13086e-014 1.35174e-014
rhumerus -32.8284 -9.00386 -69.0737
rradius 32.1014
rwrist 17.2913
rhand -21.5528 1.14722
rfingers 7.12502
rthumb 4.84055 -28.7775
lclavicle 3.13086e-014 1.35174e-014
lhumerus -34.1929 13.3459 75.7878
lradius 28.044
lwrist -6.82177
lhand -10.8316 28.601
lfingers 7.12502
lthumb 15.1827 58.0239
rfemur -12.295 -7.66809 22.7037
rtibia 29.5326
rfoot -29.6949 -15.2872
rtoes 12.8205
lfemur -19.2756 8.64761 -24.4499
ltibia 27.0018
lfoot -8.4251 18.8241
ltoes -9.64809
584
root 1.83113 29.1455 -5.84293 -171.577 -79.6621 177.694
lowerback 2.86169 0.794845 -0.846272
upperback 0.206902 1.04401 1.33575
thorax -1.43189 0.527132 1.80179
lowerneck -15.8009 4.54344 -8.24724
upperneck 40.7353 8.6191 -1.63121
head 17.4184 1.27735 2.09224
rclavicle 9.98893e-015 -1.43125e-014
rhumerus -32.8117 -8.95978 -69.1387
rradius 32.249
rwrist 17.2218
rhand -21.5901 1.07334
rfingers 7.12502
rthumb 4.80454 -28.8522
lclavicle 9.98893e-015 -1.43125e-014
lhumerus -34.2491 13.8196 75.4855
lradius 28.1242
lwrist -7.03324
lhand -10.8112 28.448
lfingers 7.12502
lthumb 15.2024 57.8695
rfemur -12.2565 -7.93772 22.69
rtibia 29.9704
rfoot -30.1744 -15.2062
rtoes 13.7211
lfemur -19.1149 8.68283 -24.4346
ltibia 26.906
lfoot -8.29917 17.9392
ltoes -10.5506
585
root 1.8219 29.1372 -5.83783 -171.508 -80.616 177.524
lowerback 2.90311 0.863253 -0.791912
upperback 0.255722 1.13573 1.27123
thorax -1.40613 0.572015 1.70097
lowerneck -15.6559 4.49021 -8.1763
upperneck 40.6465 8.53575 -1.68253
head 17.3428 1.26754 2.03959
rclavicle -2.43511e-015 4.77083e-015
rhumerus -32.8194 -9.25907 -69.0575
rradius 32.3117
rwrist 17.2241
rhand -21.7017 1.08883
rfingers 7.12502
rthumb 4.69682 -28.8391
lclavicle -2.43511e-015 4.77083e-015
lhumerus -34.2193 13.8256 75.4073
lradius 28.2337
lwrist -7.1819
lhand -10.4591 28.0773
lfingers 7.12502
lthumb 15.5415 57.4728
rfemur -12.2703 -8.53503 22.6939
rtibia 30.4837
rfoot -30.6652 -14.8011
rtoes 15.1521
lfemur -18.9292 8.28083 -24.3349
ltibia 26.7577
lfoot -8.37894 17.2231
ltoes -10.5183
586
root 1.81779 29.136 -5.82414 -169.968 -81.5581 176.073
lowerback 2.80843 0.956291 -0.878641
upperback 0.249616 1.25744 1.22288
thorax -1.36448 0.633341 1.69643
lowerneck -15.5571 4.37262 -8.45881
upperneck 40.5881 8.40718 -1.54385
head 17.2655 1.21043 2.12644
rclavicle -1.50579e-014 3.97569e-015
rhumerus -32.7249 -9.43273 -68.8161
rradius 32.2851
rwrist 17.1836
rhand -21.8376 1.07782
rfingers 7.12502
rthumb 4.5656 -28.853
lclavicle -1.50579e-014 3.97569e-015
lhumerus -34.1757 13.411 75.6874
lradius 28.4688
lwrist -6.77691
lhand -10.1686 27.8217
lfingers 7.12502
lthumb 15.8213 57.1952
rfemur -12.5845 -9.24716 22.4835
rtibia 31.0835
rfoot -30.8413 -14.4247
rtoes 16.0321
lfemur -18.9546 7.69031 -24.5032
ltibia 26.5214
lfoot -8.37576 16.7486
ltoes -10.1409
587
root 1.80832 29.1386 -5.81185 -167.166 -82.2326 173.317
lowerback 2.63765 1.03957 -1.21437
upperback 0.298024 1.35887 1.09911
thorax -1.22767 0.684851 1.75729
lowerneck -15.5276 4.32665 -8.52041
upperneck 40.5563 8.36201 -1.50633
head 17.2365 1.20053 2.14732
rclavicle -2.43511e-014 3.97569e-015
rhumerus -32.5072 -9.78345 -68.7573
rradius 32.2271
rwrist 17.4822
rhand -21.7363 1.10691
rfingers 7.12502
rthumb 4.66342 -28.8218
lclavicle -2.43511e-014 3.97569e-015
lhumerus -34.1331 13.2952 75.7172
lradius 28.6587
lwrist -6.38943
lhand -10.3374 27.8436
lfingers 7.12502
lthumb 15.6587 57.2299
rfemur -12.8654 -9.95722 22.0519
rtibia 31.7052
rfoot -30.5648 -14.2379
rtoes 14.9252
lfemur -18.9301 7.49166 -24.9182
ltibia 26.2789
lfoot -8.27296 16.2375
ltoes -10.0246
